<svg xmlns="http://www.w3.org/2000/svg" xmlns:xlink="http://www.w3.org/1999/xlink" width="150" zoomAndPan="magnify" viewBox="0 0 112.5 112.499997" height="150" preserveAspectRatio="xMidYMid meet" version="1.2"><defs><clipPath id="dd6450bfc0"><path d="M 0 0 L 112.003906 0 L 112.003906 112 L 0 112 Z M 0 0 "/></clipPath></defs><g id="1dbd6f0058"><g clip-rule="nonzero" clip-path="url(#dd6450bfc0)"><path style=" stroke:none;fill-rule:nonzero;fill:#000000;fill-opacity:1;" d="M 52.332031 0.03125 C 52.09375 0.0507812 51.324219 0.128906 50.636719 0.183594 C 34.726562 1.617188 19.828125 10.199219 10.390625 23.390625 C 5.136719 30.726562 1.773438 39.042969 0.503906 47.855469 C 0.0546875 50.933594 0 51.839844 0 56.011719 C 0 60.183594 0.0546875 61.089844 0.503906 64.167969 C 3.546875 85.195312 18.515625 102.863281 38.8125 109.410156 C 42.445312 110.582031 46.277344 111.382812 50.636719 111.863281 C 52.332031 112.046875 59.667969 112.046875 61.367188 111.863281 C 68.886719 111.03125 75.257812 109.167969 81.542969 105.960938 C 82.507812 105.46875 82.691406 105.339844 82.5625 105.230469 C 82.472656 105.164062 78.367188 99.65625 73.441406 93 L 64.484375 80.90625 L 53.265625 64.296875 C 47.089844 55.167969 42.007812 47.703125 41.964844 47.703125 C 41.921875 47.691406 41.878906 55.070312 41.855469 64.078125 C 41.824219 79.855469 41.8125 80.488281 41.613281 80.859375 C 41.332031 81.398438 41.109375 81.617188 40.652344 81.859375 C 40.300781 82.03125 39.996094 82.066406 38.339844 82.066406 L 36.445312 82.066406 L 35.945312 81.746094 C 35.613281 81.539062 35.375 81.265625 35.210938 80.949219 L 34.980469 80.457031 L 35.003906 58.507812 L 35.035156 36.546875 L 35.375 36.121094 C 35.550781 35.890625 35.921875 35.597656 36.183594 35.453125 C 36.632812 35.234375 36.808594 35.214844 38.703125 35.214844 C 40.9375 35.214844 41.308594 35.300781 41.886719 35.9375 C 42.054688 36.109375 48.128906 45.261719 55.398438 56.285156 C 62.667969 67.308594 72.609375 82.359375 77.492188 89.75 L 86.359375 103.183594 L 86.808594 102.886719 C 90.785156 100.304688 94.988281 96.625 98.316406 92.792969 C 105.398438 84.660156 109.964844 74.742188 111.5 64.167969 C 111.949219 61.089844 112.003906 60.183594 112.003906 56.011719 C 112.003906 51.839844 111.949219 50.933594 111.5 47.855469 C 108.453125 26.828125 93.488281 9.160156 73.191406 2.613281 C 69.609375 1.453125 65.800781 0.652344 61.53125 0.171875 C 60.480469 0.0625 53.242188 -0.0585938 52.332031 0.03125 Z M 75.257812 33.898438 C 75.785156 34.164062 76.210938 34.664062 76.363281 35.191406 C 76.453125 35.476562 76.476562 41.5625 76.453125 55.277344 L 76.417969 74.960938 L 72.949219 69.640625 L 69.46875 64.320312 L 69.46875 50.011719 C 69.46875 40.761719 69.511719 35.5625 69.578125 35.3125 C 69.753906 34.699219 70.136719 34.21875 70.660156 33.933594 C 71.109375 33.703125 71.273438 33.679688 72.992188 33.679688 C 74.613281 33.679688 74.898438 33.703125 75.257812 33.898438 Z M 75.257812 33.898438 "/></g></g></svg>