<svg xmlns="http://www.w3.org/2000/svg" xmlns:xlink="http://www.w3.org/1999/xlink" width="150" zoomAndPan="magnify" viewBox="0 0 112.5 112.499997" height="150" preserveAspectRatio="xMidYMid meet" version="1.2"><g id="a71a791d86"><path style=" stroke:none;fill-rule:nonzero;fill:#699635;fill-opacity:1;" d="M 108.503906 56 C 108.503906 57.71875 108.417969 59.4375 108.25 61.148438 C 108.082031 62.859375 107.828125 64.558594 107.492188 66.242188 C 107.15625 67.929688 106.742188 69.597656 106.242188 71.242188 C 105.742188 72.886719 105.164062 74.503906 104.503906 76.09375 C 103.847656 77.679688 103.113281 79.234375 102.304688 80.75 C 101.492188 82.265625 100.609375 83.738281 99.652344 85.167969 C 98.699219 86.597656 97.675781 87.976562 96.585938 89.308594 C 95.492188 90.636719 94.339844 91.910156 93.125 93.125 C 91.910156 94.339844 90.636719 95.492188 89.308594 96.585938 C 87.976562 97.675781 86.597656 98.699219 85.167969 99.652344 C 83.738281 100.609375 82.265625 101.492188 80.75 102.304688 C 79.234375 103.113281 77.679688 103.847656 76.09375 104.503906 C 74.503906 105.164062 72.886719 105.742188 71.242188 106.242188 C 69.597656 106.742188 67.929688 107.15625 66.242188 107.492188 C 64.558594 107.828125 62.859375 108.082031 61.148438 108.25 C 59.4375 108.417969 57.71875 108.503906 56 108.503906 C 54.28125 108.503906 52.566406 108.417969 50.855469 108.25 C 49.144531 108.082031 47.445312 107.828125 45.757812 107.492188 C 44.070312 107.15625 42.40625 106.742188 40.761719 106.242188 C 39.117188 105.742188 37.5 105.164062 35.910156 104.503906 C 34.320312 103.847656 32.769531 103.113281 31.253906 102.304688 C 29.734375 101.492188 28.261719 100.609375 26.832031 99.652344 C 25.402344 98.699219 24.023438 97.675781 22.695312 96.585938 C 21.367188 95.492188 20.09375 94.339844 18.878906 93.125 C 17.660156 91.910156 16.507812 90.636719 15.417969 89.308594 C 14.328125 87.976562 13.304688 86.597656 12.347656 85.167969 C 11.394531 83.738281 10.511719 82.265625 9.699219 80.75 C 8.890625 79.234375 8.15625 77.679688 7.496094 76.09375 C 6.839844 74.503906 6.261719 72.886719 5.761719 71.242188 C 5.261719 69.597656 4.84375 67.929688 4.507812 66.242188 C 4.171875 64.558594 3.921875 62.859375 3.753906 61.148438 C 3.585938 59.4375 3.5 57.71875 3.5 56 C 3.5 54.28125 3.585938 52.566406 3.753906 50.855469 C 3.921875 49.144531 4.171875 47.445312 4.507812 45.757812 C 4.84375 44.070312 5.261719 42.40625 5.761719 40.761719 C 6.261719 39.117188 6.839844 37.5 7.496094 35.910156 C 8.15625 34.320312 8.890625 32.769531 9.699219 31.253906 C 10.511719 29.734375 11.394531 28.261719 12.347656 26.832031 C 13.304688 25.402344 14.328125 24.023438 15.417969 22.695312 C 16.507812 21.367188 17.660156 20.09375 18.878906 18.878906 C 20.09375 17.660156 21.367188 16.507812 22.695312 15.417969 C 24.023438 14.328125 25.402344 13.304688 26.832031 12.347656 C 28.261719 11.394531 29.734375 10.511719 31.253906 9.699219 C 32.769531 8.890625 34.320312 8.15625 35.910156 7.496094 C 37.5 6.839844 39.117188 6.261719 40.761719 5.761719 C 42.40625 5.261719 44.070312 4.84375 45.757812 4.507812 C 47.445312 4.171875 49.144531 3.921875 50.855469 3.753906 C 52.566406 3.585938 54.28125 3.5 56 3.5 C 57.71875 3.5 59.4375 3.585938 61.148438 3.753906 C 62.859375 3.921875 64.558594 4.171875 66.242188 4.507812 C 67.929688 4.84375 69.597656 5.261719 71.242188 5.761719 C 72.886719 6.261719 74.503906 6.839844 76.09375 7.496094 C 77.679688 8.15625 79.234375 8.890625 80.75 9.699219 C 82.265625 10.511719 83.738281 11.394531 85.167969 12.347656 C 86.597656 13.304688 87.976562 14.328125 89.308594 15.417969 C 90.636719 16.507812 91.910156 17.660156 93.125 18.878906 C 94.339844 20.09375 95.492188 21.367188 96.585938 22.695312 C 97.675781 24.023438 98.699219 25.402344 99.652344 26.832031 C 100.609375 28.261719 101.492188 29.734375 102.304688 31.253906 C 103.113281 32.769531 103.847656 34.320312 104.503906 35.910156 C 105.164062 37.5 105.742188 39.117188 106.242188 40.761719 C 106.742188 42.40625 107.15625 44.070312 107.492188 45.757812 C 107.828125 47.445312 108.082031 49.144531 108.25 50.855469 C 108.417969 52.566406 108.503906 54.28125 108.503906 56 Z M 108.503906 56 "/><path style=" stroke:none;fill-rule:nonzero;fill:#ffffff;fill-opacity:1;" d="M 55.476562 46.726562 C 55.300781 45.152344 56.175781 43.574219 57.75 43.925781 C 58.976562 44.101562 60.375 45.324219 59.675781 46.550781 C 58.625 48.476562 55.824219 48.476562 54.074219 49.527344 C 54.25 50.574219 59.324219 49.351562 60.203125 49.351562 C 61.078125 49.351562 61.953125 49.699219 61.425781 50.75 C 60.902344 51.800781 59.152344 51.800781 58.101562 51.976562 C 57.050781 52.152344 55.300781 52.152344 54.777344 53.027344 C 53.726562 54.425781 55.824219 54.601562 56.527344 54.949219 C 58.277344 55.824219 55.476562 56.699219 54.777344 56.527344 C 52.152344 56 51.625 54.601562 50.050781 52.851562 C 48.476562 54.949219 43.574219 59.675781 42.527344 54.777344 C 40.777344 55.476562 39.027344 56.351562 37.101562 56.527344 C 37.976562 55.300781 39.726562 54.777344 41.125 54.074219 C 42.875 53.199219 42.875 51.625 43.925781 50.226562 C 44.277344 50.75 43.925781 51.449219 44.101562 52.152344 C 45.5 51.449219 47.25 50.050781 46.550781 48.300781 C 46.550781 48.125 44.449219 43.925781 46.199219 44.625 C 47.777344 45.324219 47.25 46.902344 47.601562 48.125 C 48.125 50.402344 47.074219 51.625 45.324219 53.027344 C 44.625 53.550781 42.699219 55.652344 44.976562 55.652344 C 46.550781 55.652344 47.949219 53.902344 48.824219 52.851562 C 49.875 51.449219 49.527344 50.050781 48.824219 48.476562 C 48.300781 47.25 47.074219 44.625 48.652344 43.75 C 49.875 45.675781 50.402344 47.949219 50.925781 50.226562 C 51.277344 52.152344 51.625 54.074219 53.726562 54.601562 C 53.550781 53.199219 54.425781 52.152344 55.652344 51.625 C 54.777344 50.925781 49.875 51.800781 51.800781 49.175781 C 51.976562 47.949219 55.476562 47.425781 55.476562 46.726562 "/><path style=" stroke:none;fill-rule:nonzero;fill:#ffffff;fill-opacity:1;" d="M 28.699219 53.199219 C 29.574219 55.652344 32.550781 54.777344 34.300781 54.074219 C 37.101562 52.675781 37.101562 50.574219 37.101562 47.777344 C 36.050781 48.300781 36.226562 50.226562 35.875 51.101562 C 35.175781 52.5 32.902344 53.726562 31.324219 53.550781 C 29.050781 53.199219 28 49.351562 29.75 47.949219 C 30.101562 49.175781 29.226562 51.800781 31.324219 51.976562 C 32.902344 52.152344 36.050781 50.226562 35.527344 48.476562 C 33.425781 49.175781 32.199219 48.476562 32.902344 46.199219 C 33.425781 44.101562 35.527344 45.675781 36.402344 46.726562 C 39.726562 44.800781 33.777344 37.449219 37.277344 35.527344 C 37.976562 36.75 39.027344 38.324219 38.152344 39.550781 C 37.101562 40.949219 38.152344 43.925781 38.324219 45.5 C 40.074219 43.925781 38.675781 46.726562 40.074219 46.902344 C 40.949219 47.074219 41.300781 44.800781 41.824219 44.800781 C 42 45.324219 42 46.902344 42.875 46.726562 C 43.925781 46.375 42.699219 44.976562 43.75 44.625 C 44.101562 45.5 43.925781 48.125 42.699219 47.949219 C 41.652344 47.777344 41.824219 47.074219 40.601562 47.777344 C 39.550781 48.300781 39.199219 47.777344 38.5 47.25 C 38.324219 49.351562 39.027344 51.625 37.800781 53.550781 C 36.75 55.125 34.652344 56 32.902344 56.351562 C 28.351562 57.226562 27.125 52.675781 28.699219 49 C 29.050781 50.050781 28.351562 51.976562 28.699219 53.199219 "/><path style=" stroke:none;fill-rule:nonzero;fill:#ffffff;fill-opacity:1;" d="M 71.402344 54.074219 C 72.277344 56.351562 74.027344 51.625 74.550781 50.925781 C 75.953125 48.824219 78.050781 54.25 78.925781 50.75 C 79.453125 48.476562 78.75 46.199219 78.578125 43.925781 C 78.402344 42.351562 77.875 40.949219 76.828125 39.726562 C 75.777344 38.324219 74.726562 37.101562 75.25 35.351562 C 77 36.050781 77 37.449219 77.875 38.851562 C 78.050781 37.800781 77.351562 36.402344 78.050781 35.527344 C 78.925781 34.300781 79.625 37.625 79.625 37.976562 C 79.800781 38.851562 78.925781 39.199219 79.453125 40.601562 C 79.800781 41.652344 80.5 42.699219 81.203125 43.574219 C 81.027344 42.527344 79.453125 35.351562 81.203125 35.351562 C 81.726562 35.351562 82.25 37.449219 82.25 37.800781 C 82.601562 38.851562 81.902344 39.726562 81.902344 40.949219 C 81.726562 43.050781 82.078125 45.5 83.476562 47.074219 C 84.175781 47.949219 86.800781 51.101562 85.402344 52.152344 C 84.351562 50.925781 83.652344 49.527344 82.777344 48.300781 C 82.777344 49.699219 83.125 51.277344 82.425781 52.324219 C 81.726562 51.976562 82.078125 49.699219 82.078125 49.175781 C 82.078125 47.25 80.851562 45.675781 79.800781 44.101562 C 79.453125 46.726562 81.550781 51.625 79.101562 53.550781 C 77.527344 54.949219 75.425781 51.800781 74.902344 53.027344 C 74.375 53.902344 73.152344 57.050781 71.75 56.699219 C 70 56.351562 68.777344 51.449219 70.703125 50.925781 C 70.875 51.800781 70.875 53.027344 71.402344 54.074219 "/><path style=" stroke:none;fill-rule:nonzero;fill:#ffffff;fill-opacity:1;" d="M 33.949219 42.175781 C 35.175781 42.351562 33.949219 38.152344 33.949219 37.449219 C 34.125 36.75 34.652344 36.402344 35 37.101562 C 35.527344 38.152344 35.527344 39.375 35.699219 40.425781 C 35.699219 41.300781 35.875 42.351562 35.175781 43.050781 C 34.125 44.101562 32.726562 43.574219 32.199219 42.175781 C 29.75 44.277344 32.902344 47.949219 30.800781 50.050781 C 30.449219 48.125 30.800781 46.027344 30.101562 44.277344 C 29.75 43.402344 28.175781 43.75 28 42.175781 C 28 41.476562 28.527344 39.550781 27.824219 39.027344 C 27.476562 39.726562 27.125 45.152344 25.375 43.574219 C 23.976562 42.527344 24.324219 39.027344 24.851562 37.625 C 25.902344 38.152344 24.675781 42 26.074219 42.175781 C 26.777344 42.351562 26.949219 39.375 27.125 38.851562 C 27.652344 37.976562 29.402344 35.527344 29.050781 37.976562 C 28.875 39.027344 28 42.351562 30.101562 42.175781 C 29.925781 40.425781 29.75 38.675781 29.402344 36.925781 C 29.226562 36.050781 29.75 34.300781 30.449219 35.875 C 30.976562 36.925781 30.625 37.449219 30.449219 38.5 C 30.277344 39.726562 30.800781 40.949219 30.976562 42 C 32.027344 41.125 30.625 37.800781 31.5 36.402344 C 33.601562 37.625 31.324219 41.824219 33.949219 42.175781 "/><path style=" stroke:none;fill-rule:nonzero;fill:#ffffff;fill-opacity:1;" d="M 56.527344 42.527344 C 55.652344 43.75 54.074219 42.699219 53.375 41.824219 C 52.5 42.875 50.75 44.625 49.351562 43.226562 C 48.300781 42.175781 49.527344 40.25 48.652344 39.375 C 48.125 40.25 47.25 44.449219 45.675781 42.527344 C 44.800781 41.476562 43.574219 37.800781 45.5 36.925781 C 45.324219 38.324219 44.976562 39.902344 45.851562 41.125 C 46.726562 42.351562 47.601562 39.199219 47.949219 38.5 C 48.476562 37.277344 50.226562 35.175781 49.875 37.800781 C 49.699219 38.851562 49.351562 41.300781 50.402344 42 C 51.101562 42.527344 51.976562 41.652344 52.324219 41.125 C 53.027344 40.25 52.675781 38.851562 52.5 37.800781 C 52.324219 36.925781 51.976562 35.875 52.5 35 C 53.199219 33.949219 53.726562 36.402344 53.726562 36.925781 C 53.726562 37.449219 54.425781 42.875 55.652344 41.125 C 56.875 39.550781 53.550781 36.050781 55.824219 35.175781 C 56.699219 34.824219 58.277344 38.324219 56.527344 37.277344 C 57.050781 38.851562 57.75 41.125 56.527344 42.527344 "/><path style=" stroke:none;fill-rule:nonzero;fill:#ffffff;fill-opacity:1;" d="M 63.175781 44.625 C 63.351562 46.902344 65.277344 53.199219 62.652344 54.601562 C 62.300781 53.902344 62.652344 52.851562 62.828125 51.976562 C 63 50.402344 62.652344 48.824219 62.476562 47.425781 C 62.125 44.101562 61.777344 41.652344 59.5 39.027344 C 58.976562 38.324219 58.101562 37.800781 57.925781 36.75 C 57.925781 36.402344 57.75 34.824219 58.449219 35.175781 C 58.976562 35.351562 61.953125 37.976562 60.375 37.976562 C 60.550781 38.324219 61.25 39.726562 61.601562 39.726562 C 61.601562 38.851562 60.550781 36.226562 61.601562 35.699219 C 62.476562 35.175781 63.527344 38.5 63.175781 39.199219 C 62.828125 40.074219 62.828125 40.601562 63.175781 41.824219 C 63.527344 43.226562 64.402344 44.449219 65.101562 45.675781 C 66.152344 47.425781 68.25 49.875 67.726562 52.152344 C 66.675781 51.625 65.976562 49.175781 65.453125 48.125 C 65.101562 47.25 64.75 46.375 64.226562 45.675781 C 64.050781 45.5 63 44.101562 63.175781 44.976562 L 63.175781 44.625 "/><path style=" stroke:none;fill-rule:nonzero;fill:#ffffff;fill-opacity:1;" d="M 87.5 47.949219 C 87.675781 51.625 86.453125 56.351562 81.902344 56.351562 C 81.902344 55.300781 84.175781 54.25 84.875 53.726562 C 86.625 52.324219 86.453125 49.699219 86.277344 47.777344 C 86.101562 45.152344 85.925781 42.527344 85.402344 39.902344 C 85.226562 38.324219 84.351562 36.050781 85.75 35 C 86.625 35.699219 87.851562 37.625 87.328125 38.324219 C 86.453125 39.375 87.328125 47.25 87.5 47.949219 "/><path style=" stroke:none;fill-rule:nonzero;fill:#ffffff;fill-opacity:1;" d="M 65.101562 55.824219 C 69.652344 53.199219 68.25 47.601562 67.902344 43.226562 C 67.726562 42 67.726562 40.777344 67.550781 39.550781 C 67.550781 38.675781 66.851562 37.449219 67.203125 36.574219 C 68.078125 34.300781 68.777344 36.402344 68.953125 37.800781 C 69.125 38.675781 68.425781 38.851562 68.601562 39.550781 C 68.777344 40.949219 68.777344 42.351562 68.953125 43.75 C 69.125 46.027344 69.476562 48.300781 69.300781 50.402344 C 68.953125 53.726562 67.203125 57.402344 63.175781 56.699219 C 63.351562 56.351562 64.578125 56.175781 65.101562 55.824219 "/><path style=" stroke:none;fill-rule:nonzero;fill:#ffffff;fill-opacity:1;" d="M 72.453125 47.074219 C 72.625 48.824219 73.328125 51.976562 72.453125 53.550781 C 71.75 54.601562 71.75 52.851562 71.578125 52.675781 C 71.402344 51.277344 71.402344 49.875 71.402344 48.300781 C 71.050781 44.449219 69.828125 40.601562 69.828125 36.925781 C 69.828125 32.199219 73.851562 39.550781 71.578125 39.199219 C 71.75 41.824219 72.101562 44.449219 72.453125 47.074219 "/><path style=" stroke:none;fill-rule:nonzero;fill:#ffffff;fill-opacity:1;" d="M 43.925781 38.152344 C 44.277344 39.027344 39.902344 41.300781 39.375 41.300781 C 39.199219 40.425781 41.300781 39.199219 41.824219 38.851562 C 42.351562 38.324219 42.699219 38.324219 42.527344 37.625 C 42.175781 36.925781 42.351562 35.699219 43.226562 35.351562 C 44.976562 34.824219 43.75 37.449219 43.925781 38.152344 "/><path style=" stroke:none;fill-rule:nonzero;fill:#ffffff;fill-opacity:1;" d="M 25.902344 53.726562 C 25.902344 55.125 26.425781 54.425781 27.125 54.074219 C 27.476562 54.777344 26.601562 56.699219 25.726562 55.824219 C 24.5 54.601562 25.550781 51.800781 26.074219 50.574219 C 26.425781 51.449219 25.726562 52.851562 25.902344 53.726562 "/><path style=" stroke:none;fill-rule:nonzero;fill:#ffffff;fill-opacity:1;" d="M 75.25 42.875 C 75.425781 42.175781 74.902344 41.476562 75.425781 40.777344 C 76.125 39.902344 76.828125 40.949219 76.476562 41.300781 C 76.125 41.652344 75.601562 40.949219 75.601562 42 C 75.601562 42.527344 75.953125 43.574219 75.425781 44.101562 C 75.078125 43.925781 73.5 41.652344 73.675781 41.300781 C 74.375 40.601562 75.078125 42.699219 75.25 42.875 "/><path style=" stroke:none;fill-rule:nonzero;fill:#ffffff;fill-opacity:1;" d="M 29.574219 45.851562 C 29.226562 46.550781 25.199219 48.824219 25.027344 48.300781 C 25.027344 47.777344 30.101562 44.800781 29.574219 45.851562 "/><path style=" stroke:none;fill-rule:nonzero;fill:#ffffff;fill-opacity:1;" d="M 59.328125 54.777344 C 58.800781 56.351562 61.078125 54.949219 61.601562 54.777344 C 60.902344 56 58.449219 57.050781 58.800781 54.777344 C 58.625 54.777344 58.277344 54.949219 58.101562 54.949219 C 57.75 54.601562 59.851562 53.199219 59.328125 54.777344 "/><path style=" stroke:none;fill-rule:nonzero;fill:#ffffff;fill-opacity:1;" d="M 78.402344 54.25 C 78.925781 54.25 79.800781 55.824219 79.277344 56.175781 C 78.925781 56.527344 77.351562 56.699219 78.226562 56 C 79.277344 54.949219 78.402344 54.25 78.402344 54.25 "/><path style=" stroke:none;fill-rule:nonzero;fill:#ffffff;fill-opacity:1;" d="M 53.726562 45.324219 C 53.902344 44.976562 53.902344 44.449219 54.074219 44.101562 C 55.824219 45.5 51.277344 47.777344 52.152344 44.449219 C 52.5 44.800781 52.5 45.324219 52.851562 45.5 C 52.851562 45.152344 53.027344 44.625 53.027344 44.277344 C 53.375 44.625 53.375 45.152344 53.726562 45.324219 "/><path style=" stroke:none;fill-rule:nonzero;fill:#ffffff;fill-opacity:1;" d="M 74.203125 47.601562 C 73.675781 46.902344 76.828125 44.976562 77.351562 44.625 C 77.703125 45.152344 75.25 47.074219 74.203125 47.601562 "/><path style=" stroke:none;fill-rule:nonzero;fill:#ffffff;fill-opacity:1;" d="M 84 40.601562 C 83.652344 39.550781 82.601562 37.449219 83.652344 36.574219 C 84.351562 37.101562 84.703125 39.726562 84 40.601562 "/><path style=" stroke:none;fill-rule:nonzero;fill:#ffffff;fill-opacity:1;" d="M 64.925781 37.101562 C 64.75 36.75 64.226562 36.402344 64.226562 35.875 C 64.402344 35.175781 64.75 35.351562 65.101562 35.699219 C 65.625 36.402344 65.976562 38.324219 65.101562 38.851562 C 65.101562 38.324219 65.277344 37.625 64.925781 37.101562 "/><path style=" stroke:none;fill-rule:nonzero;fill:#ffffff;fill-opacity:1;" d="M 43.574219 41.824219 C 43.574219 42.875 41.824219 43.925781 41.652344 42.527344 C 41.476562 42 42.351562 40.074219 42.699219 40.601562 C 42 42.175781 42 42.699219 43.574219 41.824219 "/><path style=" stroke:none;fill-rule:nonzero;fill:#ffffff;fill-opacity:1;" d="M 65.453125 39.902344 C 66.152344 41.652344 65.800781 40.074219 66.5 39.726562 C 67.726562 42 63.875 41.476562 64.75 40.074219 C 64.925781 40.25 65.101562 40.601562 65.101562 40.777344 C 65.277344 40.601562 65.277344 40.25 65.453125 39.902344 "/><path style=" stroke:none;fill-rule:nonzero;fill:#ffffff;fill-opacity:1;" d="M 76.652344 47.949219 C 75.777344 47.25 76.828125 46.375 77.351562 47.25 C 77.703125 47.777344 77.703125 49.175781 77 49.527344 C 77 49 77.175781 48.300781 76.652344 47.949219 "/><path style=" stroke:none;fill-rule:nonzero;fill:#ffffff;fill-opacity:1;" d="M 40.777344 51.800781 C 40.777344 51.449219 40.601562 48.824219 41.125 49.175781 C 41.824219 49.527344 41.652344 51.449219 40.777344 51.800781 "/><path style=" stroke:none;fill-rule:nonzero;fill:#ffffff;fill-opacity:1;" d="M 33.425781 35.351562 C 33.601562 35.875 33.777344 36.574219 34.125 35.699219 C 35.527344 37.277344 30.625 36.75 32.375 35.175781 C 32.375 35.351562 32.726562 36.402344 33.425781 35.351562 "/><path style=" stroke:none;fill-rule:nonzero;fill:#ffffff;fill-opacity:1;" d="M 51.277344 39.199219 C 51.277344 38.5 50.226562 35.527344 51.101562 35.527344 C 52.152344 35.699219 51.976562 38.324219 51.277344 39.199219 "/><path style=" stroke:none;fill-rule:nonzero;fill:#ffffff;fill-opacity:1;" d="M 26.777344 37.625 C 26.25 37.449219 27.125 36.574219 26.777344 35.875 C 26.425781 36.050781 26.074219 35.527344 26.425781 35.175781 C 27.824219 34.125 27.300781 37.625 26.777344 37.625 "/><path style=" stroke:none;fill-rule:nonzero;fill:#ffffff;fill-opacity:1;" d="M 72.101562 73.152344 L 71.402344 71.050781 L 70.703125 73.152344 L 32.375 73.152344 C 32.375 73.152344 32.726562 76.300781 36.574219 76.300781 L 70.527344 76.300781 L 70.527344 78.75 L 79.800781 78.75 L 79.800781 73.152344 L 72.101562 73.152344 M 78.050781 77.351562 L 71.75 77.351562 L 71.75 75.601562 L 78.050781 75.601562 L 78.050781 77.351562 "/></g></svg>