<svg xmlns="http://www.w3.org/2000/svg" xmlns:xlink="http://www.w3.org/1999/xlink" width="150" zoomAndPan="magnify" viewBox="0 0 112.5 112.499997" height="150" preserveAspectRatio="xMidYMid meet" version="1.2"><defs><clipPath id="2f9ad0adec"><path d="M 2 1 L 112.003906 1 L 112.003906 110 L 2 110 Z M 2 1 "/></clipPath></defs><g id="067a716da3"><g clip-rule="nonzero" clip-path="url(#2f9ad0adec)"><path style=" stroke:none;fill-rule:nonzero;fill:#0a66c2;fill-opacity:1;" d="M 123.863281 102.949219 C 124.136719 102.953125 124.402344 102.902344 124.65625 102.792969 C 124.910156 102.6875 125.132812 102.535156 125.324219 102.335938 C 125.511719 102.136719 125.65625 101.90625 125.75 101.648438 C 125.847656 101.390625 125.886719 101.125 125.871094 100.847656 C 125.871094 99.359375 124.96875 98.648438 123.121094 98.648438 L 120.132812 98.648438 L 120.132812 106.449219 L 121.253906 106.449219 L 121.253906 103.046875 L 122.636719 103.046875 L 122.667969 103.089844 L 124.8125 106.449219 L 126.011719 106.449219 L 123.707031 102.972656 Z M 122.5625 102.167969 L 121.257812 102.167969 L 121.257812 99.53125 L 122.910156 99.53125 C 123.761719 99.53125 124.734375 99.671875 124.734375 100.785156 C 124.734375 102.066406 123.753906 102.167969 122.554688 102.167969 M 94.550781 93.175781 L 78.613281 93.175781 L 78.613281 68.285156 C 78.613281 62.351562 78.507812 54.710938 70.328125 54.710938 C 62.027344 54.710938 60.757812 61.175781 60.757812 67.851562 L 60.757812 93.171875 L 44.824219 93.171875 L 44.824219 41.988281 L 60.121094 41.988281 L 60.121094 48.984375 L 60.335938 48.984375 C 61.101562 47.679688 62.027344 46.5 63.113281 45.445312 C 64.199219 44.390625 65.40625 43.5 66.734375 42.769531 C 68.066406 42.042969 69.46875 41.503906 70.941406 41.15625 C 72.417969 40.808594 73.914062 40.660156 75.429688 40.714844 C 91.578125 40.714844 94.554688 51.3125 94.554688 65.097656 Z M 26.84375 34.992188 C 26.238281 34.992188 25.636719 34.933594 25.042969 34.816406 C 24.445312 34.699219 23.867188 34.523438 23.308594 34.292969 C 22.746094 34.058594 22.210938 33.777344 21.707031 33.441406 C 21.203125 33.105469 20.734375 32.722656 20.304688 32.292969 C 19.878906 31.863281 19.492188 31.398438 19.15625 30.894531 C 18.820312 30.390625 18.535156 29.859375 18.300781 29.300781 C 18.070312 28.742188 17.894531 28.164062 17.773438 27.570312 C 17.65625 26.976562 17.597656 26.378906 17.597656 25.773438 C 17.597656 25.167969 17.65625 24.566406 17.773438 23.972656 C 17.894531 23.378906 18.066406 22.800781 18.300781 22.242188 C 18.53125 21.683594 18.816406 21.152344 19.15625 20.648438 C 19.492188 20.144531 19.875 19.679688 20.304688 19.25 C 20.734375 18.820312 21.199219 18.4375 21.707031 18.101562 C 22.210938 17.765625 22.742188 17.480469 23.304688 17.25 C 23.863281 17.019531 24.441406 16.84375 25.039062 16.726562 C 25.632812 16.605469 26.234375 16.546875 26.84375 16.546875 C 27.449219 16.546875 28.050781 16.605469 28.644531 16.722656 C 29.242188 16.84375 29.820312 17.015625 30.378906 17.25 C 30.941406 17.480469 31.476562 17.765625 31.980469 18.101562 C 32.484375 18.4375 32.953125 18.820312 33.382812 19.246094 C 33.808594 19.675781 34.195312 20.140625 34.53125 20.644531 C 34.867188 21.148438 35.152344 21.679688 35.386719 22.238281 C 35.617188 22.800781 35.792969 23.375 35.914062 23.96875 C 36.03125 24.5625 36.089844 25.164062 36.089844 25.769531 C 36.089844 26.375 36.03125 26.972656 35.914062 27.566406 C 35.792969 28.164062 35.621094 28.738281 35.386719 29.296875 C 35.15625 29.859375 34.871094 30.390625 34.53125 30.894531 C 34.195312 31.398438 33.8125 31.863281 33.382812 32.292969 C 32.953125 32.71875 32.488281 33.101562 31.980469 33.4375 C 31.476562 33.773438 30.945312 34.058594 30.382812 34.289062 C 29.824219 34.523438 29.246094 34.699219 28.648438 34.816406 C 28.054688 34.933594 27.453125 34.992188 26.84375 34.992188 M 34.8125 93.175781 L 18.863281 93.175781 L 18.863281 41.988281 L 34.8125 41.988281 Z M 102.492188 1.789062 L 10.855469 1.789062 C 10.339844 1.78125 9.828125 1.828125 9.324219 1.921875 C 8.816406 2.015625 8.324219 2.160156 7.847656 2.351562 C 7.367188 2.539062 6.914062 2.777344 6.484375 3.058594 C 6.050781 3.335938 5.652344 3.65625 5.28125 4.015625 C 4.914062 4.375 4.585938 4.765625 4.292969 5.191406 C 4.003906 5.613281 3.753906 6.0625 3.550781 6.535156 C 3.351562 7.003906 3.195312 7.492188 3.089844 7.996094 C 2.980469 8.496094 2.925781 9.007812 2.917969 9.519531 L 2.917969 101.300781 C 2.925781 101.816406 2.980469 102.324219 3.085938 102.828125 C 3.195312 103.328125 3.347656 103.816406 3.550781 104.289062 C 3.753906 104.761719 4 105.210938 4.292969 105.632812 C 4.582031 106.058594 4.914062 106.449219 5.28125 106.808594 C 5.648438 107.167969 6.050781 107.488281 6.480469 107.769531 C 6.914062 108.050781 7.367188 108.285156 7.84375 108.476562 C 8.324219 108.667969 8.816406 108.8125 9.324219 108.90625 C 9.828125 109 10.339844 109.046875 10.855469 109.042969 L 102.492188 109.042969 C 103.007812 109.046875 103.519531 109.003906 104.027344 108.910156 C 104.535156 108.816406 105.03125 108.671875 105.507812 108.480469 C 105.988281 108.292969 106.445312 108.054688 106.878906 107.773438 C 107.3125 107.496094 107.710938 107.175781 108.082031 106.816406 C 108.453125 106.457031 108.785156 106.066406 109.074219 105.640625 C 109.367188 105.214844 109.617188 104.765625 109.820312 104.292969 C 110.023438 103.820312 110.179688 103.332031 110.289062 102.828125 C 110.394531 102.324219 110.453125 101.816406 110.460938 101.300781 L 110.460938 9.511719 C 110.453125 9 110.394531 8.488281 110.289062 7.984375 C 110.179688 7.484375 110.023438 6.996094 109.820312 6.523438 C 109.617188 6.050781 109.367188 5.601562 109.074219 5.175781 C 108.78125 4.753906 108.449219 4.363281 108.082031 4.003906 C 107.710938 3.644531 107.308594 3.324219 106.875 3.042969 C 106.445312 2.765625 105.988281 2.527344 105.507812 2.339844 C 105.027344 2.148438 104.535156 2.003906 104.027344 1.910156 C 103.519531 1.816406 103.007812 1.773438 102.492188 1.78125 "/></g></g></svg>