<svg xmlns="http://www.w3.org/2000/svg" xmlns:xlink="http://www.w3.org/1999/xlink" width="150" zoomAndPan="magnify" viewBox="0 0 112.5 112.499997" height="150" preserveAspectRatio="xMidYMid meet" version="1.2"><g id="3dc74244c5"><path style=" stroke:none;fill-rule:nonzero;fill:#05bfe0;fill-opacity:1;" d="M 39.730469 81.144531 C 39.730469 80.351562 39.808594 79.570312 39.960938 78.796875 C 40.117188 78.023438 40.34375 77.269531 40.648438 76.539062 C 40.949219 75.8125 41.320312 75.117188 41.757812 74.460938 C 42.199219 73.804688 42.695312 73.195312 43.253906 72.640625 C 43.8125 72.082031 44.421875 71.582031 45.078125 71.144531 C 45.734375 70.707031 46.429688 70.335938 47.15625 70.035156 C 47.886719 69.730469 48.640625 69.503906 49.414062 69.351562 C 50.1875 69.199219 50.972656 69.121094 51.761719 69.121094 L 51.761719 57.101562 L 3.6875 57.101562 L 3.6875 69.121094 C 4.476562 69.121094 5.257812 69.199219 6.03125 69.351562 C 6.804688 69.507812 7.558594 69.734375 8.285156 70.035156 C 9.015625 70.339844 9.707031 70.707031 10.363281 71.148438 C 11.019531 71.585938 11.628906 72.082031 12.183594 72.640625 C 12.742188 73.199219 13.242188 73.808594 13.679688 74.464844 C 14.117188 75.121094 14.488281 75.8125 14.789062 76.539062 C 15.09375 77.269531 15.320312 78.023438 15.472656 78.796875 C 15.628906 79.570312 15.707031 80.351562 15.707031 81.140625 C 15.707031 81.929688 15.628906 82.710938 15.472656 83.484375 C 15.320312 84.257812 15.09375 85.011719 14.789062 85.738281 C 14.488281 86.46875 14.117188 87.160156 13.679688 87.816406 C 13.242188 88.472656 12.742188 89.082031 12.183594 89.640625 C 11.628906 90.195312 11.019531 90.695312 10.363281 91.132812 C 9.707031 91.570312 9.015625 91.941406 8.285156 92.246094 C 7.558594 92.546875 6.804688 92.773438 6.03125 92.929688 C 5.257812 93.082031 4.476562 93.160156 3.6875 93.160156 L 3.6875 105.175781 L 51.761719 105.175781 L 51.761719 93.160156 C 50.972656 93.160156 50.191406 93.082031 49.414062 92.929688 C 48.640625 92.777344 47.890625 92.550781 47.160156 92.246094 C 46.429688 91.945312 45.738281 91.574219 45.078125 91.136719 C 44.421875 90.699219 43.816406 90.203125 43.257812 89.644531 C 42.699219 89.085938 42.199219 88.480469 41.761719 87.824219 C 41.320312 87.167969 40.949219 86.472656 40.648438 85.742188 C 40.347656 85.015625 40.117188 84.261719 39.964844 83.488281 C 39.808594 82.714844 39.730469 81.933594 39.730469 81.144531 Z M 39.730469 81.144531 "/><path style=" stroke:none;fill-rule:nonzero;fill:#ff610f;fill-opacity:1;" d="M 57.648438 6.871094 L 57.648438 53.917969 C 71.355469 53.917969 82.472656 43.386719 82.476562 30.398438 C 82.476562 43.386719 93.59375 53.917969 107.304688 53.917969 L 107.304688 6.871094 C 93.59375 6.871094 82.476562 17.402344 82.476562 30.390625 C 82.472656 17.402344 71.355469 6.871094 57.648438 6.871094 Z M 57.648438 6.871094 "/><path style=" stroke:none;fill-rule:nonzero;fill:#231f20;fill-opacity:1;" d="M 38.546875 6.433594 C 38.023438 6.382812 37.496094 6.359375 36.96875 6.355469 L 3.6875 6.355469 L 3.6875 54.433594 L 13.1875 54.433594 L 13.1875 39.429688 L 36.96875 39.429688 C 37.5 39.429688 38.023438 39.429688 38.546875 39.355469 C 47.542969 38.59375 54.433594 31.460938 54.433594 22.902344 C 54.433594 14.347656 47.542969 7.210938 38.546875 6.449219 Z M 38.40625 32.796875 L 13.035156 32.796875 L 13.035156 12.765625 L 38.40625 12.765625 C 43.078125 12.765625 46.867188 17.25 46.867188 22.78125 C 46.867188 28.3125 43.078125 32.796875 38.40625 32.796875 Z M 38.40625 32.796875 "/><path style=" stroke:none;fill-rule:nonzero;fill:#4f17a8;fill-opacity:1;" d="M 57.101562 97.164062 L 65.5625 105.175781 L 57.101562 105.175781 Z M 57.101562 65.117188 L 99.390625 105.175781 L 85.21875 105.175781 L 57.101562 78.539062 Z M 79.777344 57.101562 L 107.847656 83.695312 L 107.847656 97.164062 L 65.5625 57.101562 Z M 107.847656 57.101562 L 107.847656 65.117188 L 99.390625 57.101562 Z M 107.847656 57.101562 "/></g></svg>