<svg xmlns="http://www.w3.org/2000/svg" xmlns:xlink="http://www.w3.org/1999/xlink" width="150" zoomAndPan="magnify" viewBox="0 0 112.5 112.499997" height="150" preserveAspectRatio="xMidYMid meet" version="1.2"><defs><clipPath id="d419ec58c1"><path d="M 0 0 L 112 0 L 112 112 L 0 112 Z M 0 0 "/></clipPath><clipPath id="58032a2789"><path d="M 111.261719 55.9375 C 111.261719 57.75 111.171875 59.558594 110.996094 61.359375 C 110.816406 63.164062 110.550781 64.953125 110.199219 66.730469 C 109.84375 68.507812 109.40625 70.265625 108.878906 71.996094 C 108.351562 73.730469 107.742188 75.4375 107.050781 77.109375 C 106.355469 78.785156 105.582031 80.417969 104.730469 82.015625 C 103.875 83.617188 102.945312 85.167969 101.9375 86.675781 C 100.929688 88.179688 99.851562 89.632812 98.703125 91.035156 C 97.554688 92.433594 96.339844 93.777344 95.058594 95.058594 C 93.777344 96.339844 92.433594 97.554688 91.035156 98.703125 C 89.632812 99.851562 88.179688 100.929688 86.675781 101.9375 C 85.167969 102.945312 83.617188 103.875 82.015625 104.730469 C 80.417969 105.582031 78.785156 106.355469 77.109375 107.050781 C 75.4375 107.742188 73.730469 108.351562 71.996094 108.878906 C 70.265625 109.40625 68.507812 109.84375 66.730469 110.199219 C 64.953125 110.550781 63.164062 110.816406 61.359375 110.996094 C 59.558594 111.171875 57.75 111.261719 55.9375 111.261719 C 54.125 111.261719 52.320312 111.171875 50.515625 110.996094 C 48.710938 110.816406 46.921875 110.550781 45.144531 110.199219 C 43.367188 109.84375 41.613281 109.40625 39.878906 108.878906 C 38.144531 108.351562 36.441406 107.742188 34.765625 107.050781 C 33.09375 106.355469 31.457031 105.582031 29.859375 104.730469 C 28.261719 103.875 26.710938 102.945312 25.203125 101.9375 C 23.695312 100.929688 22.242188 99.851562 20.84375 98.703125 C 19.441406 97.554688 18.101562 96.339844 16.820312 95.058594 C 15.539062 93.777344 14.324219 92.433594 13.171875 91.035156 C 12.023438 89.632812 10.945312 88.179688 9.9375 86.675781 C 8.933594 85.167969 8.003906 83.617188 7.148438 82.015625 C 6.292969 80.417969 5.519531 78.785156 4.828125 77.109375 C 4.132812 75.4375 3.523438 73.730469 2.996094 71.996094 C 2.472656 70.265625 2.03125 68.507812 1.679688 66.730469 C 1.324219 64.953125 1.058594 63.164062 0.882812 61.359375 C 0.703125 59.558594 0.617188 57.75 0.617188 55.9375 C 0.617188 54.125 0.703125 52.320312 0.882812 50.515625 C 1.058594 48.710938 1.324219 46.921875 1.679688 45.144531 C 2.03125 43.367188 2.472656 41.613281 2.996094 39.878906 C 3.523438 38.144531 4.132812 36.441406 4.828125 34.765625 C 5.519531 33.09375 6.292969 31.457031 7.148438 29.859375 C 8.003906 28.261719 8.933594 26.710938 9.9375 25.203125 C 10.945312 23.695312 12.023438 22.242188 13.171875 20.84375 C 14.324219 19.441406 15.539062 18.101562 16.820312 16.820312 C 18.101562 15.539062 19.441406 14.324219 20.84375 13.171875 C 22.242188 12.023438 23.695312 10.945312 25.203125 9.9375 C 26.710938 8.933594 28.261719 8.003906 29.859375 7.148438 C 31.457031 6.292969 33.09375 5.519531 34.765625 4.828125 C 36.441406 4.132812 38.144531 3.523438 39.878906 2.996094 C 41.613281 2.472656 43.367188 2.03125 45.144531 1.679688 C 46.921875 1.324219 48.710938 1.058594 50.515625 0.882812 C 52.320312 0.703125 54.125 0.617188 55.9375 0.617188 C 57.75 0.617188 59.558594 0.703125 61.359375 0.882812 C 63.164062 1.058594 64.953125 1.324219 66.730469 1.679688 C 68.507812 2.03125 70.265625 2.472656 71.996094 2.996094 C 73.730469 3.523438 75.4375 4.132812 77.109375 4.828125 C 78.785156 5.519531 80.417969 6.292969 82.015625 7.148438 C 83.617188 8.003906 85.167969 8.933594 86.675781 9.9375 C 88.179688 10.945312 89.632812 12.023438 91.035156 13.171875 C 92.433594 14.324219 93.777344 15.539062 95.058594 16.820312 C 96.339844 18.101562 97.554688 19.441406 98.703125 20.84375 C 99.851562 22.242188 100.929688 23.695312 101.9375 25.203125 C 102.945312 26.710938 103.875 28.261719 104.730469 29.859375 C 105.582031 31.457031 106.355469 33.09375 107.050781 34.765625 C 107.742188 36.441406 108.351562 38.144531 108.878906 39.878906 C 109.40625 41.613281 109.84375 43.367188 110.199219 45.144531 C 110.550781 46.921875 110.816406 48.710938 110.996094 50.515625 C 111.171875 52.320312 111.261719 54.125 111.261719 55.9375 Z M 111.261719 55.9375 "/></clipPath><linearGradient x1="14.640623" gradientTransform="matrix(1.229399,0,0,1.229399,0.615398,0.615399)" y1="-8.333835" x2="75.358872" gradientUnits="userSpaceOnUse" y2="98.334116" id="ae1f6556d9"><stop style="stop-color:#09b6d1;stop-opacity:1;" offset="0"/><stop style="stop-color:#09b6d1;stop-opacity:1;" offset="0.25"/><stop style="stop-color:#09b6d1;stop-opacity:1;" offset="0.28125"/><stop style="stop-color:#09b6d1;stop-opacity:1;" offset="0.296875"/><stop style="stop-color:#09b6d1;stop-opacity:1;" offset="0.304688"/><stop style="stop-color:#0ab5d1;stop-opacity:1;" offset="0.308594"/><stop style="stop-color:#0ab4d1;stop-opacity:1;" offset="0.3125"/><stop style="stop-color:#0bb3d2;stop-opacity:1;" offset="0.316406"/><stop style="stop-color:#0cb2d2;stop-opacity:1;" offset="0.320312"/><stop style="stop-color:#0db1d2;stop-opacity:1;" offset="0.324219"/><stop style="stop-color:#0eb0d2;stop-opacity:1;" offset="0.328125"/><stop style="stop-color:#0eb0d2;stop-opacity:1;" offset="0.332031"/><stop style="stop-color:#0fafd2;stop-opacity:1;" offset="0.335938"/><stop style="stop-color:#10aed2;stop-opacity:1;" offset="0.339844"/><stop style="stop-color:#11add3;stop-opacity:1;" offset="0.34375"/><stop style="stop-color:#12acd3;stop-opacity:1;" offset="0.347656"/><stop style="stop-color:#12abd3;stop-opacity:1;" offset="0.351562"/><stop style="stop-color:#13aad3;stop-opacity:1;" offset="0.355469"/><stop style="stop-color:#14a9d3;stop-opacity:1;" offset="0.359375"/><stop style="stop-color:#15a8d3;stop-opacity:1;" offset="0.363281"/><stop style="stop-color:#15a7d3;stop-opacity:1;" offset="0.367188"/><stop style="stop-color:#16a6d4;stop-opacity:1;" offset="0.371094"/><stop style="stop-color:#17a5d4;stop-opacity:1;" offset="0.375"/><stop style="stop-color:#18a4d4;stop-opacity:1;" offset="0.378906"/><stop style="stop-color:#19a3d4;stop-opacity:1;" offset="0.382812"/><stop style="stop-color:#19a2d4;stop-opacity:1;" offset="0.386719"/><stop style="stop-color:#1aa1d4;stop-opacity:1;" offset="0.390625"/><stop style="stop-color:#1ba0d5;stop-opacity:1;" offset="0.394531"/><stop style="stop-color:#1c9fd5;stop-opacity:1;" offset="0.398438"/><stop style="stop-color:#1d9ed5;stop-opacity:1;" offset="0.402344"/><stop style="stop-color:#1d9dd5;stop-opacity:1;" offset="0.40625"/><stop style="stop-color:#1e9dd5;stop-opacity:1;" offset="0.410156"/><stop style="stop-color:#1f9cd5;stop-opacity:1;" offset="0.414062"/><stop style="stop-color:#209bd5;stop-opacity:1;" offset="0.417969"/><stop style="stop-color:#219ad6;stop-opacity:1;" offset="0.421875"/><stop style="stop-color:#2199d6;stop-opacity:1;" offset="0.425781"/><stop style="stop-color:#2298d6;stop-opacity:1;" offset="0.429688"/><stop style="stop-color:#2397d6;stop-opacity:1;" offset="0.433594"/><stop style="stop-color:#2496d6;stop-opacity:1;" offset="0.4375"/><stop style="stop-color:#2595d6;stop-opacity:1;" offset="0.441406"/><stop style="stop-color:#2594d7;stop-opacity:1;" offset="0.445312"/><stop style="stop-color:#2693d7;stop-opacity:1;" offset="0.449219"/><stop style="stop-color:#2792d7;stop-opacity:1;" offset="0.453125"/><stop style="stop-color:#2891d7;stop-opacity:1;" offset="0.457031"/><stop style="stop-color:#2890d7;stop-opacity:1;" offset="0.460938"/><stop style="stop-color:#298fd7;stop-opacity:1;" offset="0.464844"/><stop style="stop-color:#2a8ed7;stop-opacity:1;" offset="0.46875"/><stop style="stop-color:#2b8dd8;stop-opacity:1;" offset="0.472656"/><stop style="stop-color:#2c8cd8;stop-opacity:1;" offset="0.476562"/><stop style="stop-color:#2c8bd8;stop-opacity:1;" offset="0.480469"/><stop style="stop-color:#2d8bd8;stop-opacity:1;" offset="0.484375"/><stop style="stop-color:#2e8ad8;stop-opacity:1;" offset="0.488281"/><stop style="stop-color:#2f89d8;stop-opacity:1;" offset="0.492188"/><stop style="stop-color:#3088d8;stop-opacity:1;" offset="0.496094"/><stop style="stop-color:#3087d9;stop-opacity:1;" offset="0.5"/><stop style="stop-color:#3186d9;stop-opacity:1;" offset="0.503906"/><stop style="stop-color:#3285d9;stop-opacity:1;" offset="0.507812"/><stop style="stop-color:#3384d9;stop-opacity:1;" offset="0.511719"/><stop style="stop-color:#3483d9;stop-opacity:1;" offset="0.515625"/><stop style="stop-color:#3482d9;stop-opacity:1;" offset="0.519531"/><stop style="stop-color:#3581da;stop-opacity:1;" offset="0.523438"/><stop style="stop-color:#3680da;stop-opacity:1;" offset="0.527344"/><stop style="stop-color:#377fda;stop-opacity:1;" offset="0.53125"/><stop style="stop-color:#387eda;stop-opacity:1;" offset="0.535156"/><stop style="stop-color:#387dda;stop-opacity:1;" offset="0.539062"/><stop style="stop-color:#397cda;stop-opacity:1;" offset="0.542969"/><stop style="stop-color:#3a7bda;stop-opacity:1;" offset="0.546875"/><stop style="stop-color:#3b7adb;stop-opacity:1;" offset="0.550781"/><stop style="stop-color:#3b79db;stop-opacity:1;" offset="0.554688"/><stop style="stop-color:#3c78db;stop-opacity:1;" offset="0.558594"/><stop style="stop-color:#3d78db;stop-opacity:1;" offset="0.5625"/><stop style="stop-color:#3e77db;stop-opacity:1;" offset="0.566406"/><stop style="stop-color:#3f76db;stop-opacity:1;" offset="0.570312"/><stop style="stop-color:#3f75db;stop-opacity:1;" offset="0.574219"/><stop style="stop-color:#4074dc;stop-opacity:1;" offset="0.578125"/><stop style="stop-color:#4173dc;stop-opacity:1;" offset="0.582031"/><stop style="stop-color:#4272dc;stop-opacity:1;" offset="0.585938"/><stop style="stop-color:#4371dc;stop-opacity:1;" offset="0.589844"/><stop style="stop-color:#4370dc;stop-opacity:1;" offset="0.59375"/><stop style="stop-color:#446fdc;stop-opacity:1;" offset="0.597656"/><stop style="stop-color:#456edd;stop-opacity:1;" offset="0.601562"/><stop style="stop-color:#466ddd;stop-opacity:1;" offset="0.605469"/><stop style="stop-color:#476cdd;stop-opacity:1;" offset="0.609375"/><stop style="stop-color:#476bdd;stop-opacity:1;" offset="0.613281"/><stop style="stop-color:#486add;stop-opacity:1;" offset="0.617188"/><stop style="stop-color:#4969dd;stop-opacity:1;" offset="0.621094"/><stop style="stop-color:#4a68dd;stop-opacity:1;" offset="0.625"/><stop style="stop-color:#4b67de;stop-opacity:1;" offset="0.628906"/><stop style="stop-color:#4b66de;stop-opacity:1;" offset="0.632813"/><stop style="stop-color:#4c65de;stop-opacity:1;" offset="0.636719"/><stop style="stop-color:#4d65de;stop-opacity:1;" offset="0.640625"/><stop style="stop-color:#4e64de;stop-opacity:1;" offset="0.644531"/><stop style="stop-color:#4e63de;stop-opacity:1;" offset="0.648438"/><stop style="stop-color:#4f62df;stop-opacity:1;" offset="0.652344"/><stop style="stop-color:#5061df;stop-opacity:1;" offset="0.65625"/><stop style="stop-color:#5160df;stop-opacity:1;" offset="0.660156"/><stop style="stop-color:#525fdf;stop-opacity:1;" offset="0.664062"/><stop style="stop-color:#525edf;stop-opacity:1;" offset="0.667969"/><stop style="stop-color:#535ddf;stop-opacity:1;" offset="0.671875"/><stop style="stop-color:#545cdf;stop-opacity:1;" offset="0.675781"/><stop style="stop-color:#555be0;stop-opacity:1;" offset="0.679688"/><stop style="stop-color:#565ae0;stop-opacity:1;" offset="0.683594"/><stop style="stop-color:#5659e0;stop-opacity:1;" offset="0.6875"/><stop style="stop-color:#5758e0;stop-opacity:1;" offset="0.691406"/><stop style="stop-color:#5857e0;stop-opacity:1;" offset="0.695312"/><stop style="stop-color:#5956e0;stop-opacity:1;" offset="0.699219"/><stop style="stop-color:#5a55e0;stop-opacity:1;" offset="0.703125"/><stop style="stop-color:#5a54e1;stop-opacity:1;" offset="0.707031"/><stop style="stop-color:#5b53e1;stop-opacity:1;" offset="0.710938"/><stop style="stop-color:#5c52e1;stop-opacity:1;" offset="0.714844"/><stop style="stop-color:#5d52e1;stop-opacity:1;" offset="0.71875"/><stop style="stop-color:#5e51e1;stop-opacity:1;" offset="0.722656"/><stop style="stop-color:#5e50e1;stop-opacity:1;" offset="0.726562"/><stop style="stop-color:#5f4fe2;stop-opacity:1;" offset="0.730469"/><stop style="stop-color:#604ee2;stop-opacity:1;" offset="0.734375"/><stop style="stop-color:#614de2;stop-opacity:1;" offset="0.738281"/><stop style="stop-color:#614ce2;stop-opacity:1;" offset="0.742188"/><stop style="stop-color:#624be2;stop-opacity:1;" offset="0.746094"/><stop style="stop-color:#634ae2;stop-opacity:1;" offset="0.75"/><stop style="stop-color:#6449e2;stop-opacity:1;" offset="0.753906"/><stop style="stop-color:#6548e3;stop-opacity:1;" offset="0.757813"/><stop style="stop-color:#6547e3;stop-opacity:1;" offset="0.761719"/><stop style="stop-color:#6646e3;stop-opacity:1;" offset="0.765625"/><stop style="stop-color:#6745e3;stop-opacity:1;" offset="0.769531"/><stop style="stop-color:#6844e3;stop-opacity:1;" offset="0.773438"/><stop style="stop-color:#6943e3;stop-opacity:1;" offset="0.777344"/><stop style="stop-color:#6942e3;stop-opacity:1;" offset="0.78125"/><stop style="stop-color:#6a41e4;stop-opacity:1;" offset="0.785156"/><stop style="stop-color:#6b40e4;stop-opacity:1;" offset="0.789062"/><stop style="stop-color:#6c3fe4;stop-opacity:1;" offset="0.792969"/><stop style="stop-color:#6d3fe4;stop-opacity:1;" offset="0.796875"/><stop style="stop-color:#6d3ee4;stop-opacity:1;" offset="0.800781"/><stop style="stop-color:#6e3de4;stop-opacity:1;" offset="0.804688"/><stop style="stop-color:#6f3ce5;stop-opacity:1;" offset="0.808594"/><stop style="stop-color:#703be5;stop-opacity:1;" offset="0.8125"/><stop style="stop-color:#713ae5;stop-opacity:1;" offset="0.816406"/><stop style="stop-color:#7139e5;stop-opacity:1;" offset="0.820312"/><stop style="stop-color:#7238e5;stop-opacity:1;" offset="0.824219"/><stop style="stop-color:#7337e5;stop-opacity:1;" offset="0.828125"/><stop style="stop-color:#7436e5;stop-opacity:1;" offset="0.832031"/><stop style="stop-color:#7435e6;stop-opacity:1;" offset="0.835938"/><stop style="stop-color:#7534e6;stop-opacity:1;" offset="0.839844"/><stop style="stop-color:#7633e6;stop-opacity:1;" offset="0.84375"/><stop style="stop-color:#7732e6;stop-opacity:1;" offset="0.847656"/><stop style="stop-color:#7831e6;stop-opacity:1;" offset="0.851562"/><stop style="stop-color:#7830e6;stop-opacity:1;" offset="0.855469"/><stop style="stop-color:#792fe7;stop-opacity:1;" offset="0.859375"/><stop style="stop-color:#7a2ee7;stop-opacity:1;" offset="0.863281"/><stop style="stop-color:#7b2de7;stop-opacity:1;" offset="0.867188"/><stop style="stop-color:#7b2de7;stop-opacity:1;" offset="0.871094"/><stop style="stop-color:#7c2ce7;stop-opacity:1;" offset="0.875"/><stop style="stop-color:#7c2ce7;stop-opacity:1;" offset="1"/></linearGradient></defs><g id="0560244fbf"><g clip-rule="nonzero" clip-path="url(#d419ec58c1)"><g clip-rule="nonzero" clip-path="url(#58032a2789)"><path style=" stroke:none;fill-rule:nonzero;fill:url(#ae1f6556d9);" d="M 0.617188 0.617188 L 0.617188 111.261719 L 111.261719 111.261719 L 111.261719 0.617188 Z M 0.617188 0.617188 "/></g></g><path style=" stroke:none;fill-rule:nonzero;fill:#ffffff;fill-opacity:1;" d="M 80.789062 66.871094 C 80.351562 66.871094 79.964844 67.242188 79.5625 68.054688 C 75.015625 77.273438 67.160156 83.796875 58.074219 83.796875 C 47.566406 83.796875 41.058594 74.308594 41.058594 61.207031 C 41.058594 39.007812 53.425781 26.175781 64.289062 26.175781 C 69.367188 26.175781 72.464844 29.367188 72.464844 34.441406 C 72.464844 40.46875 69.042969 43.65625 69.042969 45.78125 C 69.042969 46.734375 69.636719 47.3125 70.8125 47.3125 C 75.539062 47.3125 81.085938 41.882812 81.085938 34.210938 C 81.085938 26.769531 74.613281 21.300781 63.75 21.300781 C 45.796875 21.300781 29.839844 37.945312 29.839844 60.972656 C 29.839844 78.800781 40.019531 90.578125 55.726562 90.578125 C 72.394531 90.578125 82.035156 73.992188 82.035156 68.609375 C 82.035156 67.417969 81.425781 66.871094 80.789062 66.871094 Z M 80.789062 66.871094 "/></g></svg>