<svg xmlns="http://www.w3.org/2000/svg" xmlns:xlink="http://www.w3.org/1999/xlink" width="150" zoomAndPan="magnify" viewBox="0 0 112.5 112.499997" height="150" preserveAspectRatio="xMidYMid meet" version="1.2"><defs><clipPath id="1fe0a89ae6"><path d="M 7.921875 1.140625 L 104.246094 1.140625 L 104.246094 110.902344 L 7.921875 110.902344 Z M 7.921875 1.140625 "/></clipPath><clipPath id="dca7d2f96b"><path d="M 75 14 L 104.246094 14 L 104.246094 110.902344 L 75 110.902344 Z M 75 14 "/></clipPath></defs><g id="144752f3c5"><g clip-rule="nonzero" clip-path="url(#1fe0a89ae6)"><path style=" stroke:none;fill-rule:evenodd;fill:#95bf47;fill-opacity:1;" d="M 92.289062 22.511719 C 92.210938 21.960938 91.730469 21.660156 91.328125 21.621094 C 90.929688 21.585938 83.167969 21.472656 83.167969 21.472656 C 83.167969 21.472656 76.664062 15.175781 76.023438 14.527344 C 75.386719 13.886719 74.132812 14.082031 73.644531 14.226562 C 73.636719 14.226562 72.429688 14.605469 70.375 15.238281 C 70.039062 14.128906 69.53125 12.769531 68.8125 11.40625 C 66.503906 6.996094 63.109375 4.664062 59.015625 4.65625 C 59.007812 4.65625 59.007812 4.65625 58.996094 4.65625 C 58.714844 4.65625 58.429688 4.679688 58.144531 4.707031 C 58.019531 4.566406 57.90625 4.421875 57.773438 4.28125 C 55.984375 2.375 53.703125 1.453125 50.957031 1.53125 C 45.671875 1.683594 40.40625 5.496094 36.132812 12.273438 C 33.132812 17.035156 30.839844 23.023438 30.191406 27.664062 C 24.125 29.542969 19.878906 30.855469 19.78125 30.882812 C 16.714844 31.839844 16.617188 31.9375 16.21875 34.820312 C 15.945312 36.996094 7.921875 98.917969 7.921875 98.917969 L 75.121094 110.519531 L 104.246094 103.289062 C 104.246094 103.289062 92.359375 23.058594 92.289062 22.511719 Z M 67.007812 16.273438 C 65.464844 16.753906 63.707031 17.292969 61.796875 17.886719 C 61.761719 15.21875 61.441406 11.492188 60.1875 8.28125 C 64.203125 9.035156 66.175781 13.570312 67.007812 16.273438 Z M 58.277344 18.980469 C 54.761719 20.070312 50.914062 21.257812 47.058594 22.449219 C 48.144531 18.304688 50.203125 14.171875 52.726562 11.464844 C 53.667969 10.457031 54.984375 9.335938 56.535156 8.699219 C 58.003906 11.742188 58.3125 16.0625 58.277344 18.980469 Z M 51.074219 5.042969 C 52.316406 5.019531 53.355469 5.292969 54.253906 5.878906 C 52.824219 6.613281 51.449219 7.679688 50.152344 9.0625 C 46.792969 12.664062 44.21875 18.242188 43.195312 23.636719 C 39.996094 24.621094 36.863281 25.597656 33.984375 26.484375 C 35.796875 18.003906 42.921875 5.273438 51.074219 5.042969 Z M 51.074219 5.042969 "/></g><g clip-rule="nonzero" clip-path="url(#dca7d2f96b)"><path style=" stroke:none;fill-rule:evenodd;fill:#5e8e3e;fill-opacity:1;" d="M 91.328125 21.621094 C 90.929688 21.585938 83.167969 21.472656 83.167969 21.472656 C 83.167969 21.472656 76.664062 15.175781 76.023438 14.527344 C 75.785156 14.289062 75.464844 14.164062 75.121094 14.109375 L 75.121094 110.511719 L 104.234375 103.28125 C 104.234375 103.28125 92.351562 23.058594 92.28125 22.511719 C 92.21875 21.960938 91.730469 21.660156 91.328125 21.621094 Z M 91.328125 21.621094 "/></g><path style=" stroke:none;fill-rule:evenodd;fill:#ffffff;fill-opacity:1;" d="M 58.980469 36.578125 L 55.59375 49.21875 C 55.59375 49.21875 51.820312 47.507812 47.351562 47.78125 C 40.796875 48.199219 40.726562 52.324219 40.789062 53.359375 C 41.144531 59.011719 56.03125 60.242188 56.875 73.488281 C 57.53125 83.898438 51.339844 91.023438 42.421875 91.589844 C 31.71875 92.265625 25.820312 85.957031 25.820312 85.957031 L 28.085938 76.324219 C 28.085938 76.324219 34.019531 80.796875 38.761719 80.492188 C 41.863281 80.300781 42.972656 77.78125 42.859375 75.996094 C 42.394531 68.625 30.261719 69.058594 29.5 56.945312 C 28.851562 46.753906 35.554688 36.417969 50.355469 35.488281 C 56.066406 35.125 58.980469 36.578125 58.980469 36.578125 Z M 58.980469 36.578125 "/></g></svg>